<?xml version="1.0" standalone="no"?>
<svg viewBox="0 0 200 200" xmlns="http://www.w3.org/2000/svg">
  <path fill="#4338CA" d="M45.8,-77.5C59.3,-71.4,70.3,-59.2,76.9,-45.2C83.5,-31.3,85.8,-15.6,85.5,-0.2C85.1,15.2,82.2,30.5,74,41.7C65.7,52.8,52.2,59.9,39,67.7C25.8,75.4,12.9,83.8,-1.4,86.2C-15.6,88.6,-31.3,84.9,-44.7,77.3C-58,69.6,-69.1,58,-74.6,44.4C-80,30.9,-79.9,15.4,-79.7,0.1C-79.6,-15.2,-79.4,-30.5,-72.7,-41.9C-66,-53.4,-52.9,-61.1,-39.7,-67.3C-26.5,-73.6,-13.2,-78.4,1.4,-80.9C16.1,-83.3,32.2,-83.5,45.8,-77.5Z" transform="translate(100 100)" />
</svg>
